Coordinates
version=1
nRows=27
nColumns=21
inDegrees=yes

Units are S.I. units (second, meters, Newtons, ...)
If the header above contains a line with 'inDegrees', this indicates whether rotational values are in degrees (yes) or radians (no).

endheader
time	sternoclavicular_r2	sternoclavicular_r3	unrotscap_r3	unrotscap_r2	acromioclavicular_r2	acromioclavicular_r3	acromioclavicular_r1	unrothum_r1	unrothum_r3	unrothum_r2	elv_angle	shoulder_elev	shoulder1_r2	shoulder_rot	elbow_flexion	pro_sup	deviation	flexion	wrist_hand_r1	wrist_hand_r3
      5.05050505	     -0.00074454	      0.00031535	     -0.00031535	      0.00074454	     -0.00015075	      0.00121835	      0.00054764	     -0.00054764	     -0.00121835	      0.00015075	     23.49505884	      0.00307662	    -23.49505884	     -9.37426258	    102.49029358	      0.00000000	      0.00000000	     -0.00000000	     -0.00000000	      0.00000000
      5.15151515	     -0.00079005	      0.00033463	     -0.00033463	      0.00079005	     -0.00015997	      0.00129282	      0.00058111	     -0.00058111	     -0.00129282	      0.00015997	     21.48562951	      0.00326467	    -21.48562951	     -9.22238980	    101.71266548	      0.00000000	      0.00000000	     -0.00000000	     -0.00000000	      0.00000000
      5.25252525	     -0.00084427	      0.00035759	     -0.00035759	      0.00084427	     -0.00017095	      0.00138154	      0.00062099	     -0.00062099	     -0.00138154	      0.00017095	     19.41062414	      0.00348871	    -19.41062414	     -9.07248694	    100.94669698	      0.00000000	      0.00000000	     -0.00000000	     -0.00000000	      0.00000000
      5.35353535	     -0.00091033	      0.00038557	     -0.00038557	      0.00091033	     -0.00018432	      0.00148963	      0.00066958	     -0.00066958	     -0.00148963	      0.00018432	     17.25542820	      0.00376168	    -17.25542820	     -8.92485352	    100.19367528	      0.00000000	      0.00000000	     -0.00000000	     -0.00000000	      0.00000000
      5.45454545	     -0.00099356	      0.00042082	     -0.00042082	      0.00099356	     -0.00020118	      0.00162583	      0.00073080	     -0.00073080	     -0.00162583	      0.00020118	     14.99592844	      0.00410560	    -14.99592844	     -8.77985138	     99.45482742	      0.00000000	      0.00000000	     -0.00000000	     -0.00000000	      0.00000000
      5.55555556	     -0.00108733	      0.00046054	     -0.00046054	      0.00108733	     -0.00022016	      0.00177927	      0.00079977	     -0.00079977	     -0.00177927	      0.00022016	     12.57304067	      0.00449308	    -12.57304067	     -8.63470583	     98.72897844	      0.00000000	      0.00000000	     -0.00000000	     -0.00000000	      0.00000000
      5.65656566	     -0.00122829	      0.00052024	     -0.00052024	      0.00122829	     -0.00024870	      0.00200993	      0.00090345	     -0.00090345	     -0.00200993	      0.00024870	      9.82197122	      0.00507555	     -9.82197122	     -8.49369265	     98.02024756	      0.00000000	      0.00000000	     -0.00000000	     -0.00000000	      0.00000000
      5.75757576	     -0.00156117	      0.00066124	     -0.00066124	      0.00156117	     -0.00031611	      0.00255465	      0.00114830	     -0.00114830	     -0.00255465	      0.00031611	      5.04643803	      0.00645111	     -5.04643803	     -8.35407754	     97.32681070	      0.00000000	      0.00000000	     -0.00000000	     -0.00000000	      0.00000000
      5.85858586	     -5.52385302	      2.33964343	     -2.33964343	      5.52385302	     -1.11846787	      9.03906392	      4.06299702	     -4.06299702	     -9.03906392	      1.11846787	    -55.90175018	     22.82578776	     55.90175018	      7.07054267	    106.74539502	      0.00000000	      0.00000000	     -0.00000000	     -0.00000000	      0.00000000
      5.95959596	     -5.39203619	      2.28381204	     -2.28381204	      5.39203619	     -1.09177765	      8.82336289	      3.96604089	     -3.96604089	     -8.82336289	      1.09177765	    -56.49381240	     22.28109132	     56.49381240	      6.72054550	    106.17421150	      0.00000000	      0.00000000	     -0.00000000	     -0.00000000	      0.00000000
      6.06060606	     -5.27244986	      2.23316092	     -2.23316092	      5.27244986	     -1.06756385	      8.62767549	      3.87808076	     -3.87808076	     -8.62767549	      1.06756385	    -56.92066282	     21.78693407	     56.92066282	      6.44271890	    105.60834070	      0.00000000	      0.00000000	     -0.00000000	     -0.00000000	      0.00000000
      6.16161616	     -5.16218671	      2.18645865	     -2.18645865	      5.16218671	     -1.04523780	      8.44724425	      3.79697816	     -3.79697816	     -8.44724425	      1.04523780	    -57.21883585	     21.33130225	     57.21883585	      6.21990026	    105.04633768	      0.00000000	      0.00000000	     -0.00000000	     -0.00000000	      0.00000000
      6.26262626	     -5.05949317	      2.14296251	     -2.14296251	      5.05949317	     -1.02444445	      8.27919968	      3.72144328	     -3.72144328	     -8.27919968	      1.02444445	    -57.41445460	     20.90694971	     57.41445460	      6.03973025	    104.48992641	      0.00000000	      0.00000000	     -0.00000000	     -0.00000000	      0.00000000
      6.36363636	     -4.96310418	      2.10213668	     -2.10213668	      4.96310418	     -1.00492764	      8.12147169	      3.65054563	     -3.65054563	     -8.12147169	      1.00492764	    -57.52786483	     20.50864898	     57.52786483	      5.89292858	    103.94061442	      0.00000000	      0.00000000	     -0.00000000	     -0.00000000	      0.00000000
      6.46464646	     -4.87209867	      2.06359104	     -2.06359104	      4.87209867	     -0.98650087	      7.97255305	      3.58360773	     -3.58360773	     -7.97255305	      0.98650087	    -57.57509152	     20.13259399	     57.57509152	      5.77243734	    103.39975539	      0.00000000	      0.00000000	     -0.00000000	     -0.00000000	      0.00000000
      6.56565657	     -4.78580320	      2.02704036	     -2.02704036	      4.78580320	     -0.96902780	      7.83134180	      3.52013424	     -3.52013424	     -7.83134180	      0.96902780	    -57.56885890	     19.77600196	     57.56885890	      5.67284445	    102.86858460	      0.00000000	      0.00000000	     -0.00000000	     -0.00000000	      0.00000000
      6.66666667	     -4.70372530	      1.99227603	     -1.99227603	      4.70372530	     -0.95240869	      7.69703203	      3.45976293	     -3.45976293	     -7.69703203	      0.95240869	    -57.51934681	     19.43683783	     57.51934681	      5.58997393	    102.34824228	      0.00000000	      0.00000000	     -0.00000000	     -0.00000000	      0.00000000
      6.76767677	     -4.62787569	      1.96014972	     -1.96014972	      4.62787569	     -0.93705069	      7.57291406	      3.40397275	     -3.40397275	     -7.57291406	      0.93705069	    -57.43731591	     19.12341042	     57.43731591	      5.52458581	    101.84435599	      0.00000000	      0.00000000	     -0.00000000	     -0.00000000	      0.00000000
      6.86868687	     -4.55959348	      1.93122860	     -1.93122860	      4.55959348	     -0.92322493	      7.46117914	      3.35374867	     -3.35374867	     -7.46117914	      0.92322493	    -57.18101604	     18.84125315	     57.18101604	      5.51520067	    101.34455277	      0.00000000	      0.00000000	     -0.00000000	     -0.00000000	      0.00000000
      6.96969697	     -4.49352281	      1.90324418	     -1.90324418	      4.49352281	     -0.90984696	      7.35306312	      3.30515127	     -3.30515127	     -7.35306312	      0.90984696	    -56.92880100	     18.56823446	     56.92880100	      5.50695828	    100.86018216	      0.00000000	      0.00000000	     -0.00000000	     -0.00000000	      0.00000000
      7.07070707	     -4.42954075	      1.87614440	     -1.87614440	      4.42954075	     -0.89689190	      7.24836483	      3.25809011	     -3.25809011	     -7.24836483	      0.89689190	    -56.67878383	     18.30384636	     56.67878383	      5.49804001	    100.39062550	      0.00000000	      0.00000000	     -0.00000000	     -0.00000000	      0.00000000
      7.17171717	     -4.36098087	      1.84710567	     -1.84710567	      4.36098087	     -0.88300992	      7.13617554	      3.20766179	     -3.20766179	     -7.13617554	      0.88300992	    -56.58110741	     18.02054171	     56.58110741	      5.43296480	     99.93773061	      0.00000000	      0.00000000	     -0.00000000	     -0.00000000	      0.00000000
      7.27272727	     -4.30181158	      1.82204435	     -1.82204435	      4.30181158	     -0.87102934	      7.03935273	      3.16414061	     -3.16414061	     -7.03935273	      0.87102934	    -56.31812308	     17.77604107	     56.31812308	      5.43310184	     99.50156228	      0.00000000	      0.00000000	     -0.00000000	     -0.00000000	      0.00000000
      7.37373737	     -4.24069064	      1.79615640	     -1.79615640	      4.24069064	     -0.85865359	      6.93933629	      3.11918390	     -3.11918390	     -6.93933629	      0.85865359	    -56.21320517	     17.52347575	     56.21320517	      5.37471653	     99.08387380	      0.00000000	      0.00000000	     -0.00000000	     -0.00000000	      0.00000000
      7.47474747	     -4.18889712	      1.77421912	     -1.77421912	      4.18889712	     -0.84816646	      6.85458297	      3.08108787	     -3.08108787	     -6.85458297	      0.84816646	    -55.93816440	     17.30945345	     55.93816440	      5.38041410	     98.68150839	      0.00000000	      0.00000000	     -0.00000000	     -0.00000000	      0.00000000
      7.57575758	     -4.13984807	      1.75344425	     -1.75344425	      4.13984807	     -0.83823502	      6.77432060	      3.04501049	     -3.04501049	     -6.77432060	      0.83823502	    -55.66839395	     17.10677185	     55.66839395	      5.38545438	     98.29722588	      0.00000000	      0.00000000	     -0.00000000	     -0.00000000	      0.00000000
      7.67676768	     -4.09347988	      1.73380487	     -1.73380487	      4.09347988	     -0.82884641	      6.69844511	      3.01090498	     -3.01090498	     -6.69844511	      0.82884641	    -55.40351938	     16.91516820	     55.40351938	      5.39103929	     97.93168177	      0.00000000	      0.00000000	     -0.00000000	     -0.00000000	      0.00000000
